<svg width="24" height="24" viewBox="0 0 24 24" fill="none" xmlns="http://www.w3.org/2000/svg">
<path d="M1.71484 4.875H18.656" stroke="#140523" stroke-width="1.71429" stroke-linecap="round" stroke-linejoin="round"/>
<path d="M14.4219 6.68885V3.05859" stroke="#140523" stroke-width="1.71429" stroke-linecap="round" stroke-linejoin="round"/>
<path d="M1.71484 10.3203H10.7904" stroke="#140523" stroke-width="1.71429" stroke-linecap="round" stroke-linejoin="round"/>
<path d="M5.34375 12.1341V8.50391" stroke="#140523" stroke-width="1.71429" stroke-linecap="round" stroke-linejoin="round"/>
<path d="M1.71484 15.9648H8.97536" stroke="#140523" stroke-width="1.71429" stroke-linecap="round" stroke-linejoin="round"/>
<path d="M16.5021 19.5306L17.8481 21.0263L20.9196 19.2582L20.332 17.3566L20.5669 16.6514L22.7304 16.2797V12.6239L20.7914 12.1805L20.3481 11.4113L20.9624 9.50964L17.8962 7.74155L16.5288 9.21051H15.658L14.3173 7.71484L11.2459 9.48293L11.8388 11.4166L11.4168 12.1537L9.42969 12.5704V16.1172L11.4008 16.566L11.8281 17.3031L11.1978 19.2315L14.2692 21.0049L15.6314 19.5306H16.5021Z" stroke="#140523" stroke-width="1.71429" stroke-miterlimit="10" stroke-linecap="round" stroke-linejoin="round"/>
<path d="M16.0857 16.5895C17.311 16.5895 18.3044 15.5963 18.3044 14.371C18.3044 13.1457 17.311 12.1523 16.0857 12.1523C14.8604 12.1523 13.8672 13.1457 13.8672 14.371C13.8672 15.5963 14.8604 16.5895 16.0857 16.5895Z" stroke="#140523" stroke-width="1.71429" stroke-linecap="round" stroke-linejoin="round"/>
</svg>
