<svg width="111" height="33" viewBox="0 0 111 33" fill="none" xmlns="http://www.w3.org/2000/svg">
<path d="M28.4244 3.61337C29.8089 3.61337 31.0216 3.858 32.0626 4.34725C33.1139 4.8261 33.9311 5.50793 34.514 6.39275C35.097 7.27757 35.3884 8.30292 35.3884 9.4688C35.3884 10.6347 35.097 11.66 34.514 12.5448C33.9311 13.4297 33.1139 14.1167 32.0626 14.606C31.0216 15.0848 29.8089 15.3242 28.4244 15.3242H22.5221V3.61337H28.4244ZM24.2709 12.3575H28.6742C29.3508 12.3575 29.939 12.2378 30.4386 11.9983C30.9487 11.7589 31.3391 11.4258 31.6097 10.999C31.8804 10.5618 32.0157 10.0517 32.0157 9.4688C32.0157 8.88586 31.8804 8.38099 31.6097 7.95419C31.3391 7.51699 30.9487 7.17868 30.4386 6.93925C29.939 6.69983 29.3508 6.58012 28.6742 6.58012H24.2709L25.848 5.03429V13.9033L24.2709 12.3575ZM41.1996 15.5897C40.0649 15.5897 39.0604 15.3919 38.186 14.9963C37.322 14.6007 36.6506 14.049 36.1717 13.3412C35.6929 12.6229 35.4535 11.7954 35.4535 10.8585C35.4535 9.92162 35.6929 9.09925 36.1717 8.3914C36.6506 7.67313 37.322 7.12142 38.186 6.73627C39.0604 6.3407 40.0649 6.14292 41.1996 6.14292C42.3342 6.14292 43.3336 6.3407 44.1976 6.73627C45.072 7.12142 45.7486 7.67313 46.2275 8.3914C46.7063 9.09925 46.9457 9.92162 46.9457 10.8585C46.9457 11.7954 46.7063 12.6229 46.2275 13.3412C45.7486 14.049 45.072 14.6007 44.1976 14.9963C43.3336 15.3919 42.3342 15.5897 41.1996 15.5897ZM41.1996 13.1538C41.6993 13.1538 42.1313 13.0653 42.4956 12.8884C42.8599 12.701 43.1358 12.4355 43.3232 12.092C43.5209 11.7485 43.6198 11.3373 43.6198 10.8585C43.6198 10.39 43.5209 9.98407 43.3232 9.64056C43.1358 9.28663 42.8599 9.02118 42.4956 8.84422C42.1313 8.65684 41.6993 8.56316 41.1996 8.56316C40.6999 8.56316 40.2679 8.65684 39.9036 8.84422C39.5393 9.02118 39.2582 9.28663 39.0604 9.64056C38.873 9.98407 38.7794 10.39 38.7794 10.8585C38.7794 11.3373 38.873 11.7485 39.0604 12.092C39.2582 12.4355 39.5393 12.701 39.9036 12.8884C40.2679 13.0653 40.6999 13.1538 41.1996 13.1538ZM46.4236 7.39207L48.2193 6.64258L49.6402 3.98812H51.514V6.39275H55.2302V8.81299H51.514V11.3581C51.514 11.7954 51.566 12.1389 51.6701 12.3887C51.7846 12.6281 51.9668 12.8051 52.2166 12.9196C52.4768 13.0237 52.8412 13.0757 53.3096 13.0757C53.7156 13.0757 54.0851 13.0445 54.4182 12.982C54.7618 12.9092 55.0845 12.8051 55.3863 12.6698V15.1212C55.0428 15.2566 54.616 15.3659 54.106 15.4491C53.5959 15.5428 53.0806 15.5897 52.5601 15.5897C51.1028 15.5897 50.015 15.2566 49.2967 14.5903C48.5784 13.9241 48.2193 12.9925 48.2193 11.7954V8.81299H46.4236V7.39207ZM66.1431 12.3887C66.1431 13.0757 65.9297 13.6587 65.5029 14.1375C65.0866 14.6164 64.488 14.9807 63.7073 15.2305C62.9266 15.47 61.9897 15.5897 60.8967 15.5897C59.7933 15.5897 58.82 15.4543 57.9768 15.1837C57.1336 14.9026 56.4726 14.5175 55.9937 14.0282C55.5149 13.5286 55.2599 12.9508 55.2286 12.295H58.5701C58.6326 12.5448 58.7679 12.7582 58.9761 12.9352C59.1947 13.1018 59.4758 13.2319 59.8193 13.3256C60.1628 13.4193 60.574 13.4661 61.0528 13.4661C61.4588 13.4661 61.8023 13.4401 62.0834 13.388C62.3749 13.3256 62.5882 13.2371 62.7236 13.1226C62.8693 12.9977 62.9422 12.8467 62.9422 12.6698C62.9422 12.524 62.8849 12.4095 62.7704 12.3262C62.6663 12.2326 62.4946 12.1597 62.2551 12.1076C62.0261 12.0452 61.7138 11.9983 61.3183 11.9671L59.7568 11.8578C58.2058 11.7537 57.1024 11.4779 56.4466 11.0302C55.8012 10.5722 55.4785 9.94764 55.4785 9.15651C55.4785 8.16759 55.9313 7.4181 56.8369 6.90803C57.753 6.39795 58.9917 6.14292 60.5532 6.14292C61.5421 6.14292 62.4321 6.27304 63.2232 6.53328C64.0248 6.79352 64.6598 7.16306 65.1282 7.64191C65.607 8.11034 65.8829 8.65164 65.9558 9.26581H62.6143C62.531 8.9327 62.3072 8.66725 61.9429 8.46947C61.5785 8.26128 61.0632 8.15718 60.397 8.15718C59.8453 8.15718 59.4237 8.22484 59.1322 8.36017C58.8408 8.4955 58.695 8.68287 58.695 8.92229C58.695 9.12007 58.7835 9.27101 58.9605 9.37511C59.1479 9.4688 59.481 9.53646 59.9598 9.5781L62.0209 9.73424C63.0515 9.7967 63.8634 9.94244 64.4568 10.1714C65.0605 10.39 65.4925 10.6815 65.7528 11.0459C66.013 11.4102 66.1431 11.8578 66.1431 12.3887ZM77.3989 13.4661L79.8816 6.39275H83.1606L79.8503 15.3242H76.4932L73.7295 7.96981H74.8225L72.0275 15.3242H68.6704L65.3601 6.39275H68.6548L71.1375 13.4661H70.1069L72.7145 6.39275H75.8374L78.4138 13.4661H77.3989ZM90.4281 12.1233L90.8653 10.8585L90.4281 9.62494L90.8497 6.39275H94.2536L93.6915 10.8585L94.2536 15.3242H90.8497L90.4281 12.1233ZM91.5992 10.8585C91.4638 11.8058 91.1776 12.6385 90.7404 13.3568C90.3136 14.0647 89.7671 14.6164 89.1008 15.0119C88.4346 15.3971 87.6851 15.5897 86.8524 15.5897C85.9884 15.5897 85.2232 15.3919 84.557 14.9963C83.8908 14.6007 83.3703 14.049 82.9956 13.3412C82.6312 12.6229 82.4491 11.7954 82.4491 10.8585C82.4491 9.93203 82.6312 9.10966 82.9956 8.3914C83.3703 7.67313 83.8908 7.12142 84.557 6.73627C85.2232 6.3407 85.9884 6.14292 86.8524 6.14292C87.6851 6.14292 88.4346 6.3355 89.1008 6.72065C89.7775 7.10581 90.3292 7.65752 90.756 8.37578C91.1932 9.08364 91.4742 9.91121 91.5992 10.8585ZM85.7593 10.8585C85.7593 11.2853 85.8478 11.6652 86.0248 11.9983C86.2018 12.3314 86.4516 12.5969 86.7743 12.7947C87.097 12.982 87.4561 13.0757 87.8517 13.0757C88.4763 13.0757 89.0488 12.8727 89.5693 12.4668C90.1002 12.0504 90.4749 11.5143 90.6935 10.8585C90.4749 10.2131 90.1002 9.68219 89.5693 9.26581C89.0488 8.84942 88.4763 8.64123 87.8517 8.64123C87.4561 8.64123 87.097 8.74012 86.7743 8.93791C86.4516 9.12528 86.2018 9.38552 86.0248 9.71863C85.8478 10.0517 85.7593 10.4317 85.7593 10.8585ZM98.1488 6.39275V8.90668L98.0083 9.31265V11.8578L98.1488 12.6073V17.9006H94.8542V6.39275H98.1488ZM97.1183 10.8585C97.2432 9.91121 97.519 9.08364 97.9458 8.37578C98.383 7.65752 98.9348 7.10581 99.601 6.72065C100.278 6.3355 101.032 6.14292 101.865 6.14292C102.729 6.14292 103.494 6.3407 104.16 6.73627C104.827 7.12142 105.342 7.67313 105.706 8.3914C106.081 9.10966 106.268 9.93203 106.268 10.8585C106.268 11.7954 106.081 12.6229 105.706 13.3412C105.342 14.049 104.827 14.6007 104.16 14.9963C103.494 15.3919 102.729 15.5897 101.865 15.5897C101.032 15.5897 100.283 15.3971 99.6166 15.0119C98.9504 14.6164 98.3987 14.0647 97.9615 13.3568C97.5347 12.6385 97.2536 11.8058 97.1183 10.8585ZM102.942 10.8585C102.942 10.4317 102.854 10.0517 102.677 9.71863C102.5 9.38552 102.25 9.12528 101.928 8.93791C101.615 8.74012 101.256 8.64123 100.85 8.64123C100.236 8.64123 99.6634 8.84942 99.1325 9.26581C98.6121 9.68219 98.2425 10.2131 98.0239 10.8585C98.2425 11.5143 98.6121 12.0504 99.1325 12.4668C99.653 12.8727 100.226 13.0757 100.85 13.0757C101.256 13.0757 101.615 12.982 101.928 12.7947C102.25 12.5969 102.5 12.3314 102.677 11.9983C102.854 11.6652 102.942 11.2853 102.942 10.8585Z" fill="black" fill-opacity="0.9"/>
<path d="M108.171 15.496C107.827 15.496 107.515 15.4179 107.234 15.2618C106.953 15.0952 106.729 14.8714 106.562 14.5903C106.406 14.3093 106.328 13.997 106.328 13.6535C106.328 13.31 106.406 12.9977 106.562 12.7166C106.729 12.4355 106.953 12.2169 107.234 12.0608C107.515 11.8942 107.827 11.811 108.171 11.811C108.504 11.811 108.811 11.8942 109.092 12.0608C109.373 12.2169 109.592 12.4355 109.748 12.7166C109.914 12.9977 109.998 13.31 109.998 13.6535C109.998 13.997 109.914 14.3093 109.748 14.5903C109.592 14.8714 109.373 15.0952 109.092 15.2618C108.811 15.4179 108.504 15.496 108.171 15.496Z" fill="#E6007A"/>
<g clip-path="url(#clip0_2661_1837)">
<path d="M9.02295 4.02518C10.9341 4.02518 12.4834 3.12411 12.4834 2.01259C12.4834 0.901066 10.9341 0 9.02295 0C7.1118 0 5.5625 0.901066 5.5625 2.01259C5.5625 3.12411 7.1118 4.02518 9.02295 4.02518Z" fill="#E6007A"/>
<path d="M9.02295 19.1892C10.9341 19.1892 12.4834 18.2882 12.4834 17.1767C12.4834 16.0651 10.9341 15.1641 9.02295 15.1641C7.1118 15.1641 5.5625 16.0651 5.5625 17.1767C5.5625 18.2882 7.1118 19.1892 9.02295 19.1892Z" fill="#E6007A"/>
<path d="M4.19885 6.81016C5.15443 5.1551 5.14823 3.36257 4.185 2.80644C3.22177 2.2503 1.66627 3.14116 0.710696 4.79622C-0.244882 6.45128 -0.23868 8.24381 0.724548 8.79994C1.68778 9.35608 3.24328 8.46523 4.19885 6.81016Z" fill="#E6007A"/>
<path d="M17.3293 14.3908C18.2849 12.7358 18.2792 10.9435 17.3166 10.3878C16.3541 9.83203 14.7991 10.7232 13.8435 12.3782C12.8879 14.0333 12.8936 15.8255 13.8562 16.3813C14.8188 16.9371 16.3737 16.0459 17.3293 14.3908Z" fill="#E6007A"/>
<path d="M4.185 16.3811C5.14823 15.8249 5.15443 14.0324 4.19885 12.3773C3.24328 10.7223 1.68778 9.83142 0.724548 10.3876C-0.23868 10.9437 -0.244882 12.7362 0.710695 14.3913C1.66627 16.0463 3.22177 16.9372 4.185 16.3811Z" fill="#E6007A"/>
<path d="M17.3166 8.79971C18.2792 8.24395 18.2849 6.45173 17.3293 4.79667C16.3737 3.1416 14.8188 2.25045 13.8562 2.80621C12.8936 3.36197 12.8879 5.15419 13.8435 6.80925C14.7991 8.46431 16.3541 9.35547 17.3166 8.79971Z" fill="#E6007A"/>
</g>
<path d="M62.2843 23.7622C62.4005 23.7622 62.5132 23.8067 62.6225 23.8955C62.7319 23.9775 62.7865 24.0697 62.7865 24.1722C62.7865 24.3567 62.5371 24.9957 62.0383 26.089C61.5463 27.1823 61.1944 27.9203 60.9825 28.303C60.7775 28.6788 60.5965 28.8667 60.4393 28.8667C60.3505 28.8667 60.2411 28.8018 60.1113 28.672C59.9815 28.5422 59.8858 28.4021 59.8243 28.2517C59.6398 27.8212 59.4416 27.1277 59.2298 26.171C59.018 25.2143 58.912 24.5139 58.912 24.0697C58.912 23.8647 58.9735 23.7622 59.0965 23.7622C59.2469 23.7622 59.4006 23.8272 59.5578 23.957C59.715 24.08 59.8243 24.2372 59.8858 24.4285C59.9063 24.5378 59.9336 24.8112 59.9678 25.2485C60.0635 26.3282 60.2275 27.1584 60.4598 27.7392C60.6443 27.3429 60.88 26.7826 61.167 26.0582C61.454 25.3271 61.6864 24.7633 61.864 24.367C62.0485 23.9638 62.1886 23.7622 62.2843 23.7622ZM65.1108 29.0975C64.8399 29.0975 64.5312 28.9242 64.1845 28.5775C63.8378 28.22 63.6645 27.9275 63.6645 27.7C63.6645 27.4617 63.7566 27.2287 63.9408 27.0012C64.1358 26.7629 64.3308 26.6437 64.5258 26.6437C64.7316 26.6437 64.9645 26.9092 65.2245 27.44C65.4954 27.9708 65.6308 28.3717 65.6308 28.6425C65.6308 28.7292 65.5712 28.8267 65.452 28.935C65.3328 29.0433 65.2191 29.0975 65.1108 29.0975ZM75.7757 23.1012C75.7757 23.3071 75.2991 23.5454 74.3457 23.8162C74.4324 24.9429 74.4757 25.9017 74.4757 26.6925C74.4757 28.0575 74.3024 28.74 73.9557 28.74C73.7716 28.74 73.6253 28.6262 73.517 28.3987C73.4086 28.1712 73.322 27.7758 73.257 27.2125C73.1811 26.1725 73.0999 25.1542 73.0132 24.1575C72.5257 24.2875 72.0816 24.4067 71.6807 24.515C71.2799 24.6125 70.6732 24.775 69.8607 25.0025C68.9074 27.4942 68.3441 28.74 68.1707 28.74C67.9974 28.74 67.8078 28.6371 67.602 28.4312C67.407 28.2146 67.3095 27.9871 67.3095 27.7487C67.3095 27.6404 67.6182 26.8712 68.2357 25.4412H68.122C67.9053 25.4412 67.7103 25.3708 67.537 25.23C67.3745 25.0892 67.2932 24.9158 67.2932 24.71C67.2932 24.4933 67.8295 24.2117 68.902 23.865C69.0753 23.475 69.2161 23.1229 69.3245 22.8087C69.5736 22.1912 69.9203 21.3462 70.3645 20.2737C70.8086 19.2012 71.0903 18.5187 71.2095 18.2262C71.3286 17.9229 71.5345 17.6683 71.827 17.4625C72.1303 17.2458 72.4228 17.1375 72.7045 17.1375C73.0403 17.1375 73.3382 17.6737 73.5982 18.7462C73.8691 19.8187 74.0857 21.1458 74.2482 22.7275C74.5516 22.695 74.817 22.6787 75.0445 22.6787C75.532 22.6787 75.7757 22.8196 75.7757 23.1012ZM70.462 23.4425C71.2311 23.2367 72.0436 23.0633 72.8995 22.9225C72.7045 21.07 72.5149 19.6779 72.3307 18.7462C71.8432 19.8621 71.2203 21.4275 70.462 23.4425ZM80.2022 17.5112C80.2022 19.5479 79.7797 22.1912 78.9347 25.4412C78.393 27.6512 78.0139 28.7562 77.7972 28.7562C77.6455 28.7562 77.4668 28.6371 77.2609 28.3987C77.0659 28.1604 76.9684 27.9762 76.9684 27.8462C76.9684 27.7162 77.1255 27.0446 77.4397 25.8312C77.7539 24.6179 78.068 23.1283 78.3822 21.3625C78.6964 19.5858 78.8534 17.9879 78.8534 16.5687C78.8534 16.4171 78.8751 16.3087 78.9184 16.2437C78.9618 16.1787 79.0539 16.1462 79.1947 16.1462C79.3355 16.1462 79.5359 16.3033 79.7959 16.6175C80.0668 16.9208 80.2022 17.2187 80.2022 17.5112ZM86.2978 20.6475C86.7637 20.6475 87.1645 20.9454 87.5003 21.5412C87.847 22.1371 88.0203 22.7546 88.0203 23.3937C88.0203 24.0221 87.8362 24.6558 87.4678 25.295C87.0995 25.9233 86.6445 26.4867 86.1028 26.985C85.5612 27.4833 84.9599 27.9004 84.2991 28.2362C83.6491 28.5612 83.0478 28.7237 82.4953 28.7237C82.2787 28.7237 82.0728 28.6967 81.8778 28.6425C81.8345 28.8267 81.7587 29.1571 81.6503 29.6338C81.542 30.1104 81.4499 30.5058 81.3741 30.82C81.2983 31.1342 81.2116 31.47 81.1141 31.8275C80.9191 32.5642 80.7458 32.9325 80.5941 32.9325C80.4424 32.9325 80.2853 32.8133 80.1228 32.575C79.9495 32.3475 79.8628 32.1417 79.8628 31.9575C79.8628 31.7733 80.0362 30.9825 80.3828 29.585C81.4228 25.3708 81.9428 22.5325 81.9428 21.07C81.9428 20.745 82.062 20.5825 82.3003 20.5825C82.4953 20.5825 82.7283 20.7287 82.9991 21.0212C83.2808 21.3029 83.4216 21.6171 83.4216 21.9637C83.4216 22.1371 83.3999 22.3267 83.3566 22.5325C84.3208 21.2758 85.3012 20.6475 86.2978 20.6475ZM82.3328 27.4562C82.907 27.4562 83.5245 27.2612 84.1853 26.8712C84.857 26.4812 85.4258 25.9667 85.8916 25.3275C86.3683 24.6775 86.6066 24.0329 86.6066 23.3937C86.6066 22.4946 86.3953 22.045 85.9728 22.045C85.5503 22.045 84.9762 22.4079 84.2503 23.1337C83.5353 23.8596 82.9666 24.8021 82.5441 25.9612L82.1703 27.4562H82.3328ZM90.6616 16.78C90.6616 16.3575 90.7916 16.1462 91.0516 16.1462C91.2574 16.1462 91.4741 16.3087 91.7016 16.6337C91.9399 16.9587 92.0591 17.2729 92.0591 17.5762C92.0591 18.2804 91.8804 19.4829 91.5229 21.1837C91.1762 22.8737 90.7212 24.5637 90.1579 26.2537C91.2412 24.2929 92.1458 22.8792 92.8716 22.0125C93.6083 21.135 94.2366 20.6962 94.7566 20.6962C95.0383 20.6962 95.3633 20.94 95.7316 21.4275C96.1108 21.915 96.3004 22.4025 96.3004 22.89C96.3004 23.3775 96.1649 24.1087 95.8941 25.0837C95.2224 27.5321 94.5887 28.7562 93.9929 28.7562C93.7545 28.7562 93.6354 28.5937 93.6354 28.2687C93.6354 27.9437 93.7654 27.3967 94.0254 26.6275C94.5995 24.9483 94.8866 23.8162 94.8866 23.2312C94.8866 23.0362 94.8379 22.8737 94.7404 22.7437C94.6429 22.6137 94.5237 22.5487 94.3829 22.5487C94.242 22.5487 94.0687 22.6246 93.8629 22.7762C93.657 22.9279 93.4079 23.1933 93.1154 23.5725C92.747 24.06 92.3624 24.6071 91.9616 25.2137C91.5716 25.8204 91.3333 26.1887 91.2466 26.3187C91.1708 26.4379 91.0299 26.66 90.8241 26.985C90.6291 27.31 90.4829 27.5537 90.3854 27.7162C90.2879 27.8679 90.1687 28.0358 90.0279 28.22C89.7787 28.5775 89.5891 28.7562 89.4591 28.7562C89.3291 28.7562 89.1558 28.6371 88.9391 28.3987C88.7224 28.1496 88.6141 27.9437 88.6141 27.7812C88.6141 27.6079 88.6737 27.2883 88.7929 26.8225C89.3345 24.7425 89.6758 23.3179 89.8166 22.5487C90.3799 19.7321 90.6616 17.8092 90.6616 16.78ZM101.779 20.6962C102.266 20.6962 102.716 20.9454 103.128 21.4437C103.539 21.9312 103.745 22.3754 103.745 22.7762C103.745 23.1662 103.61 23.5671 103.339 23.9787C103.469 24.1412 103.534 24.2821 103.534 24.4012C103.534 24.7046 103.463 25.2246 103.323 25.9612C103.193 26.6979 103.111 27.18 103.079 27.4075C103.057 27.635 103.035 27.8192 103.014 27.96C102.992 28.09 102.965 28.22 102.933 28.35C102.889 28.6208 102.792 28.7562 102.64 28.7562C102.445 28.7562 102.283 28.5883 102.153 28.2525C102.033 27.9058 101.963 27.4617 101.941 26.92C100.977 28.1442 100.083 28.7562 99.26 28.7562C98.7617 28.7562 98.2688 28.545 97.7813 28.1225C97.3046 27.6892 97.0663 27.245 97.0663 26.79C97.0663 26.14 97.3046 25.3383 97.7813 24.385C98.2579 23.4208 98.8754 22.565 99.6338 21.8175C100.392 21.07 101.107 20.6962 101.779 20.6962ZM102.526 23.5562C102.526 22.5487 102.326 22.045 101.925 22.045C101.503 22.045 101.01 22.3483 100.446 22.955C99.8829 23.5508 99.4063 24.2279 99.0163 24.9862C98.6263 25.7446 98.4313 26.3458 98.4313 26.79C98.4313 26.9742 98.5071 27.1258 98.6588 27.245C98.8104 27.3533 98.9892 27.4075 99.195 27.4075C99.7042 27.4075 100.278 27.0662 100.918 26.3837C101.557 25.6904 102.001 24.8508 102.25 23.865C102.283 23.7025 102.375 23.605 102.526 23.5725V23.5562Z" fill="#E6007A"/>
<defs>
<clipPath id="clip0_2661_1837">
<rect width="18.0452" height="19.191" fill="white"/>
</clipPath>
</defs>
</svg>
