<svg width="111" height="20" viewBox="0 0 111 20" fill="none" xmlns="http://www.w3.org/2000/svg">
<path d="M28.4244 3.61337C29.8089 3.61337 31.0216 3.858 32.0626 4.34725C33.1139 4.8261 33.9311 5.50793 34.514 6.39275C35.097 7.27757 35.3884 8.30292 35.3884 9.4688C35.3884 10.6347 35.097 11.66 34.514 12.5448C33.9311 13.4297 33.1139 14.1167 32.0626 14.606C31.0216 15.0848 29.8089 15.3242 28.4244 15.3242H22.5221V3.61337H28.4244ZM24.2709 12.3575H28.6742C29.3508 12.3575 29.939 12.2378 30.4386 11.9983C30.9487 11.7589 31.3391 11.4258 31.6097 10.999C31.8804 10.5618 32.0157 10.0517 32.0157 9.4688C32.0157 8.88586 31.8804 8.38099 31.6097 7.95419C31.3391 7.51699 30.9487 7.17868 30.4386 6.93925C29.939 6.69983 29.3508 6.58012 28.6742 6.58012H24.2709L25.848 5.03429V13.9033L24.2709 12.3575ZM41.1996 15.5897C40.0649 15.5897 39.0604 15.3919 38.186 14.9963C37.322 14.6007 36.6506 14.049 36.1717 13.3412C35.6929 12.6229 35.4535 11.7954 35.4535 10.8585C35.4535 9.92162 35.6929 9.09925 36.1717 8.3914C36.6506 7.67313 37.322 7.12142 38.186 6.73627C39.0604 6.3407 40.0649 6.14292 41.1996 6.14292C42.3342 6.14292 43.3336 6.3407 44.1976 6.73627C45.072 7.12142 45.7486 7.67313 46.2275 8.3914C46.7063 9.09925 46.9457 9.92162 46.9457 10.8585C46.9457 11.7954 46.7063 12.6229 46.2275 13.3412C45.7486 14.049 45.072 14.6007 44.1976 14.9963C43.3336 15.3919 42.3342 15.5897 41.1996 15.5897ZM41.1996 13.1538C41.6993 13.1538 42.1313 13.0653 42.4956 12.8884C42.8599 12.701 43.1358 12.4355 43.3232 12.092C43.5209 11.7485 43.6198 11.3373 43.6198 10.8585C43.6198 10.39 43.5209 9.98407 43.3232 9.64056C43.1358 9.28663 42.8599 9.02118 42.4956 8.84422C42.1313 8.65684 41.6993 8.56316 41.1996 8.56316C40.6999 8.56316 40.2679 8.65684 39.9036 8.84422C39.5393 9.02118 39.2582 9.28663 39.0604 9.64056C38.873 9.98407 38.7794 10.39 38.7794 10.8585C38.7794 11.3373 38.873 11.7485 39.0604 12.092C39.2582 12.4355 39.5393 12.701 39.9036 12.8884C40.2679 13.0653 40.6999 13.1538 41.1996 13.1538ZM46.4236 7.39207L48.2193 6.64258L49.6402 3.98812H51.514V6.39275H55.2302V8.81299H51.514V11.3581C51.514 11.7954 51.566 12.1389 51.6701 12.3887C51.7846 12.6281 51.9668 12.8051 52.2166 12.9196C52.4768 13.0237 52.8412 13.0757 53.3096 13.0757C53.7156 13.0757 54.0851 13.0445 54.4182 12.982C54.7618 12.9092 55.0845 12.8051 55.3863 12.6698V15.1212C55.0428 15.2566 54.616 15.3659 54.106 15.4491C53.5959 15.5428 53.0806 15.5897 52.5601 15.5897C51.1028 15.5897 50.015 15.2566 49.2967 14.5903C48.5784 13.9241 48.2193 12.9925 48.2193 11.7954V8.81299H46.4236V7.39207ZM66.1431 12.3887C66.1431 13.0757 65.9297 13.6587 65.5029 14.1375C65.0866 14.6164 64.488 14.9807 63.7073 15.2305C62.9266 15.47 61.9897 15.5897 60.8967 15.5897C59.7933 15.5897 58.82 15.4543 57.9768 15.1837C57.1336 14.9026 56.4726 14.5175 55.9937 14.0282C55.5149 13.5286 55.2599 12.9508 55.2286 12.295H58.5701C58.6326 12.5448 58.7679 12.7582 58.9761 12.9352C59.1947 13.1018 59.4758 13.2319 59.8193 13.3256C60.1628 13.4193 60.574 13.4661 61.0528 13.4661C61.4588 13.4661 61.8023 13.4401 62.0834 13.388C62.3749 13.3256 62.5882 13.2371 62.7236 13.1226C62.8693 12.9977 62.9422 12.8467 62.9422 12.6698C62.9422 12.524 62.8849 12.4095 62.7704 12.3262C62.6663 12.2326 62.4946 12.1597 62.2551 12.1076C62.0261 12.0452 61.7138 11.9983 61.3183 11.9671L59.7568 11.8578C58.2058 11.7537 57.1024 11.4779 56.4466 11.0302C55.8012 10.5722 55.4785 9.94764 55.4785 9.15651C55.4785 8.16759 55.9313 7.4181 56.8369 6.90803C57.753 6.39795 58.9917 6.14292 60.5532 6.14292C61.5421 6.14292 62.4321 6.27304 63.2232 6.53328C64.0248 6.79352 64.6598 7.16306 65.1282 7.64191C65.607 8.11034 65.8829 8.65164 65.9558 9.26581H62.6143C62.531 8.9327 62.3072 8.66725 61.9429 8.46947C61.5785 8.26128 61.0632 8.15718 60.397 8.15718C59.8453 8.15718 59.4237 8.22484 59.1322 8.36017C58.8408 8.4955 58.695 8.68287 58.695 8.92229C58.695 9.12007 58.7835 9.27101 58.9605 9.37511C59.1479 9.4688 59.481 9.53646 59.9598 9.5781L62.0209 9.73424C63.0515 9.7967 63.8634 9.94244 64.4568 10.1714C65.0605 10.39 65.4925 10.6815 65.7528 11.0459C66.013 11.4102 66.1431 11.8578 66.1431 12.3887ZM77.3989 13.4661L79.8816 6.39275H83.1606L79.8503 15.3242H76.4932L73.7295 7.96981H74.8225L72.0275 15.3242H68.6704L65.3601 6.39275H68.6548L71.1375 13.4661H70.1069L72.7145 6.39275H75.8374L78.4138 13.4661H77.3989ZM90.4281 12.1233L90.8653 10.8585L90.4281 9.62494L90.8497 6.39275H94.2536L93.6915 10.8585L94.2536 15.3242H90.8497L90.4281 12.1233ZM91.5992 10.8585C91.4638 11.8058 91.1776 12.6385 90.7404 13.3568C90.3136 14.0647 89.7671 14.6164 89.1008 15.0119C88.4346 15.3971 87.6851 15.5897 86.8524 15.5897C85.9884 15.5897 85.2232 15.3919 84.557 14.9963C83.8908 14.6007 83.3703 14.049 82.9956 13.3412C82.6312 12.6229 82.4491 11.7954 82.4491 10.8585C82.4491 9.93203 82.6312 9.10966 82.9956 8.3914C83.3703 7.67313 83.8908 7.12142 84.557 6.73627C85.2232 6.3407 85.9884 6.14292 86.8524 6.14292C87.6851 6.14292 88.4346 6.3355 89.1008 6.72065C89.7775 7.10581 90.3292 7.65752 90.756 8.37578C91.1932 9.08364 91.4742 9.91121 91.5992 10.8585ZM85.7593 10.8585C85.7593 11.2853 85.8478 11.6652 86.0248 11.9983C86.2018 12.3314 86.4516 12.5969 86.7743 12.7947C87.097 12.982 87.4561 13.0757 87.8517 13.0757C88.4763 13.0757 89.0488 12.8727 89.5693 12.4668C90.1002 12.0504 90.4749 11.5143 90.6935 10.8585C90.4749 10.2131 90.1002 9.68219 89.5693 9.26581C89.0488 8.84942 88.4763 8.64123 87.8517 8.64123C87.4561 8.64123 87.097 8.74012 86.7743 8.93791C86.4516 9.12528 86.2018 9.38552 86.0248 9.71863C85.8478 10.0517 85.7593 10.4317 85.7593 10.8585ZM98.1488 6.39275V8.90668L98.0083 9.31265V11.8578L98.1488 12.6073V17.9006H94.8542V6.39275H98.1488ZM97.1183 10.8585C97.2432 9.91121 97.519 9.08364 97.9458 8.37578C98.383 7.65752 98.9348 7.10581 99.601 6.72065C100.278 6.3355 101.032 6.14292 101.865 6.14292C102.729 6.14292 103.494 6.3407 104.16 6.73627C104.827 7.12142 105.342 7.67313 105.706 8.3914C106.081 9.10966 106.268 9.93203 106.268 10.8585C106.268 11.7954 106.081 12.6229 105.706 13.3412C105.342 14.049 104.827 14.6007 104.16 14.9963C103.494 15.3919 102.729 15.5897 101.865 15.5897C101.032 15.5897 100.283 15.3971 99.6166 15.0119C98.9504 14.6164 98.3987 14.0647 97.9615 13.3568C97.5347 12.6385 97.2536 11.8058 97.1183 10.8585ZM102.942 10.8585C102.942 10.4317 102.854 10.0517 102.677 9.71863C102.5 9.38552 102.25 9.12528 101.928 8.93791C101.615 8.74012 101.256 8.64123 100.85 8.64123C100.236 8.64123 99.6634 8.84942 99.1325 9.26581C98.6121 9.68219 98.2425 10.2131 98.0239 10.8585C98.2425 11.5143 98.6121 12.0504 99.1325 12.4668C99.653 12.8727 100.226 13.0757 100.85 13.0757C101.256 13.0757 101.615 12.982 101.928 12.7947C102.25 12.5969 102.5 12.3314 102.677 11.9983C102.854 11.6652 102.942 11.2853 102.942 10.8585Z" fill="black" fill-opacity="0.9"/>
<path d="M108.171 15.496C107.827 15.496 107.515 15.4179 107.234 15.2618C106.953 15.0952 106.729 14.8714 106.562 14.5903C106.406 14.3093 106.328 13.997 106.328 13.6535C106.328 13.31 106.406 12.9977 106.562 12.7166C106.729 12.4355 106.953 12.2169 107.234 12.0608C107.515 11.8942 107.827 11.811 108.171 11.811C108.504 11.811 108.811 11.8942 109.092 12.0608C109.373 12.2169 109.592 12.4355 109.748 12.7166C109.914 12.9977 109.998 13.31 109.998 13.6535C109.998 13.997 109.914 14.3093 109.748 14.5903C109.592 14.8714 109.373 15.0952 109.092 15.2618C108.811 15.4179 108.504 15.496 108.171 15.496Z" fill="#E6007A"/>
<g clip-path="url(#clip0_2535_14988)">
<path d="M9.02295 4.02518C10.9341 4.02518 12.4834 3.12411 12.4834 2.01259C12.4834 0.901066 10.9341 0 9.02295 0C7.1118 0 5.5625 0.901066 5.5625 2.01259C5.5625 3.12411 7.1118 4.02518 9.02295 4.02518Z" fill="#E6007A"/>
<path d="M9.02295 19.1892C10.9341 19.1892 12.4834 18.2882 12.4834 17.1767C12.4834 16.0651 10.9341 15.1641 9.02295 15.1641C7.1118 15.1641 5.5625 16.0651 5.5625 17.1767C5.5625 18.2882 7.1118 19.1892 9.02295 19.1892Z" fill="#E6007A"/>
<path d="M4.19885 6.81016C5.15443 5.1551 5.14823 3.36257 4.185 2.80644C3.22177 2.2503 1.66627 3.14116 0.710696 4.79622C-0.244882 6.45128 -0.23868 8.24381 0.724548 8.79994C1.68778 9.35608 3.24328 8.46523 4.19885 6.81016Z" fill="#E6007A"/>
<path d="M17.3293 14.3908C18.2849 12.7358 18.2792 10.9435 17.3166 10.3878C16.3541 9.83203 14.7991 10.7232 13.8435 12.3782C12.8879 14.0333 12.8936 15.8255 13.8562 16.3813C14.8188 16.9371 16.3737 16.0459 17.3293 14.3908Z" fill="#E6007A"/>
<path d="M4.185 16.3811C5.14823 15.8249 5.15443 14.0324 4.19885 12.3773C3.24328 10.7223 1.68778 9.83142 0.724548 10.3876C-0.23868 10.9437 -0.244882 12.7362 0.710695 14.3913C1.66627 16.0463 3.22177 16.9372 4.185 16.3811Z" fill="#E6007A"/>
<path d="M17.3166 8.79971C18.2792 8.24395 18.2849 6.45173 17.3293 4.79667C16.3737 3.1416 14.8188 2.25045 13.8562 2.80621C12.8936 3.36197 12.8879 5.15419 13.8435 6.80925C14.7991 8.46431 16.3541 9.35547 17.3166 8.79971Z" fill="#E6007A"/>
</g>
<defs>
<clipPath id="clip0_2535_14988">
<rect width="18.0452" height="19.191" fill="white"/>
</clipPath>
</defs>
</svg>
