<svg width="24" height="24" viewBox="0 0 24 24" fill="none" xmlns="http://www.w3.org/2000/svg">
<path d="M20.1313 11.4228L19.5222 11.2532C19.0894 11.1332 18.9256 10.6068 19.2127 10.2617L19.6621 9.72133C20.4293 8.7994 20.368 7.44468 19.5206 6.59558C18.6136 5.68689 17.1405 5.68689 16.2334 6.59558C15.386 7.44468 15.3247 8.7994 16.0919 9.72133L16.5413 10.2617C16.8285 10.6068 16.6638 11.1332 16.2318 11.2532L15.6243 11.422C15.1576 11.552 14.7371 11.7713 14.3656 12.0477C14.3598 12.0543 14.3565 12.0626 14.3507 12.0692L13.9013 12.6096C13.6141 12.9547 13.7788 13.4811 14.2108 13.6011L14.8199 13.7707C16.264 14.1721 17.3192 15.3663 17.5766 16.803H22.9526V15.1337C22.9526 13.4033 21.7989 11.8855 20.1322 11.422L20.1313 11.4228Z" stroke="white" stroke-width="1.65517" stroke-linecap="round" stroke-linejoin="round"/>
<path d="M10.5764 13.7038L10.9196 13.6011C11.2018 13.5225 11.2047 13.1389 11.2072 12.8774C10.7081 12.1259 10.1061 11.677 9.19076 11.4221L8.58331 11.2532C8.15128 11.1332 7.98659 10.6069 8.27376 10.2618L8.72318 9.72137C9.49035 8.79944 9.42911 7.44468 8.58166 6.59558C7.67459 5.68689 6.20149 5.68689 5.29445 6.59558C4.44701 7.44468 4.38576 8.79944 5.15294 9.72137L5.60232 10.2618C5.88949 10.6069 5.7248 11.1332 5.2928 11.2532L4.6837 11.4229C3.01694 11.8863 1.86328 13.4041 1.86328 15.1346V16.8039H7.55873C7.81528 15.3672 8.86966 14.173 10.3138 13.7716L10.5764 13.7038Z" stroke="white" stroke-width="1.65517" stroke-linecap="round" stroke-linejoin="round"/>
<path d="M11.231 12.6094L10.7816 12.069C10.0144 11.1471 10.0756 9.79231 10.9231 8.94321C11.8301 8.03455 13.3032 8.03455 14.2103 8.94321C15.0577 9.79231 15.119 11.1471 14.3518 12.069L13.9024 12.6094C13.6152 12.9545 13.7799 13.4809 14.2128 13.6009L14.8219 13.7705C16.4886 14.234 17.6423 15.7518 17.6423 17.4822V19.1507H7.49609V17.4789C7.49609 15.7501 8.64806 14.2331 10.314 13.7697L10.9214 13.6009C11.3543 13.4809 11.5181 12.9545 11.231 12.6094Z" stroke="white" stroke-width="1.65517" stroke-linecap="round" stroke-linejoin="round"/>
</svg>
